<svg width="200" height="200" viewBox="0 0 300 300" fill="none" xmlns="http://www.w3.org/2000/svg">
<path d="M134.323 74.9072C144.151 69.8009 155.849 69.8009 165.677 74.9072L212.279 99.123C223.538 104.973 230.602 116.605 230.603 129.293V170.707C230.602 183.395 223.538 195.027 212.279 200.877L165.677 225.093C155.849 230.199 144.151 230.199 134.323 225.093L87.7207 200.877C76.4622 195.027 69.3975 183.395 69.3975 170.707V129.293C69.3975 116.605 76.4622 104.973 87.7207 99.123L134.323 74.9072Z" stroke="black" stroke-width="12"/>
<path d="M89 118.304L131.557 140.417C143.118 146.424 156.882 146.424 168.443 140.417L211 118.303" stroke="black" stroke-width="12" stroke-linecap="round"/>
<path d="M150 146.4V213.9" stroke="black" stroke-width="12" stroke-linecap="round"/>
</svg>
